<?xml version="1.0" encoding="utf-8"?>
<!-- Generator: Adobe Illustrator 24.0.0, SVG Export Plug-In . SVG Version: 6.00 Build 0)  -->
<svg version="1.1" id="Capa_1" xmlns="http://www.w3.org/2000/svg" xmlns:xlink="http://www.w3.org/1999/xlink" x="0px" y="0px"
	 viewBox="0 0 240 234" style="enable-background:new 0 0 240 234;" xml:space="preserve">
<style type="text/css">
	.st0{fill:#0044FF;}
</style>
<g>
	<g>
		<path class="st0" d="M105,103.9c-1-3.1-1.9-6.1-2.9-9.2c-1-3.1-1.9-6-2.7-8.9c-0.8-2.8-1.5-5.4-2.2-7.8H97
			c-0.9,4.3-2,8.6-3.4,12.9c-1.5,4.8-3,9.8-4.6,14.8c-1.4,5.1-2.9,9.8-4.4,14H110c-0.6-2.1-1.4-4.6-2.3-7.2
			C106.8,109.8,105.9,106.9,105,103.9z"/>
		<path class="st0" d="M197.5,0h-155C19,0,0,19,0,42.5v149C0,215,19,234,42.5,234h155c23.5,0,42.5-19,42.5-42.5v-149
			C240,19,221,0,197.5,0z M146.7,164.9h-20.9c-0.7,0.1-1.4-0.4-1.6-1.1L116,140H78.8l-7.6,23.5c-0.2,0.9-1,1.5-1.9,1.4H50.5
			c-1.1,0-1.4-0.6-1.1-1.8l32.2-92.7c0.3-1,0.6-2.1,1-3.3c0.4-2.1,0.6-4.3,0.6-6.5c-0.1-0.5,0.3-1,0.8-1.1h25.9
			c0.8,0,1.2,0.3,1.3,0.8l36.5,103C148,164.4,147.7,164.9,146.7,164.9z M181.2,163.8c0,1.1-0.4,1.6-1.3,1.6h-19.6
			c-1,0-1.5-0.6-1.5-1.6v-77c0-1,0.4-1.4,1.3-1.4h19.8c0.9,0,1.3,0.5,1.3,1.4V163.8z M179.1,73.5c-2.3,2.4-5.7,3.7-9.1,3.5
			c-3.3,0.1-6.5-1.2-8.9-3.5c-2.3-2.5-3.5-5.8-3.4-9.2c-0.1-3.4,1.2-6.6,3.6-8.9c2.4-2.3,5.6-3.5,8.9-3.5c3.9,0,6.9,1.2,9.1,3.5
			c2.2,2.4,3.4,5.6,3.3,8.9C182.7,67.7,181.5,71,179.1,73.5z"/>
	</g>
</g>
</svg>
