<?xml version="1.0" encoding="utf-8"?>
<!-- Generator: Adobe Illustrator 24.0.0, SVG Export Plug-In . SVG Version: 6.00 Build 0)  -->
<svg version="1.1" id="Capa_1" xmlns="http://www.w3.org/2000/svg" xmlns:xlink="http://www.w3.org/1999/xlink" x="0px" y="0px"
	 viewBox="0 0 1000 610" style="enable-background:new 0 0 1000 610;" xml:space="preserve">
<style type="text/css">
	.st0{fill:none;stroke:#000000;stroke-width:0.25;}
	.st1{clip-path:url(#SVGID_2_);fill:#1537FF;}
	.st2{opacity:0.44;clip-path:url(#SVGID_4_);fill:url(#SVGID_5_);}
	.st3{clip-path:url(#SVGID_7_);fill:#EB3EEC;}
	.st4{clip-path:url(#SVGID_11_);}
	.st5{opacity:0.75;fill:url(#SVGID_12_);}
	.st6{opacity:0.27;fill:url(#SVGID_13_);}
	.st7{opacity:0.79;fill:url(#SVGID_14_);}
	.st8{fill:#1537FF;}
	.st9{opacity:0.62;clip-path:url(#SVGID_18_);}
	.st10{fill:#4D9AFF;}
	.st11{fill:#EB3EEC;}
	.st12{opacity:0.5;}
	.st13{clip-path:url(#SVGID_24_);}
	.st14{opacity:0.35;fill:url(#SVGID_25_);}
	.st15{fill:url(#SVGID_26_);}
	.st16{fill:url(#SVGID_27_);}
	.st17{clip-path:url(#SVGID_29_);}
	.st18{opacity:0.17;fill:url(#SVGID_30_);}
	.st19{opacity:0.92;fill:url(#SVGID_31_);}
	.st20{opacity:0.92;fill:url(#SVGID_32_);}
	.st21{clip-path:url(#SVGID_34_);}
	.st22{opacity:4.000000e-02;fill:url(#SVGID_35_);}
	.st23{opacity:0.92;fill:url(#SVGID_36_);}
	.st24{clip-path:url(#SVGID_38_);fill:#0528F2;}
	.st25{opacity:0.44;clip-path:url(#SVGID_40_);fill:url(#SVGID_41_);}
	.st26{clip-path:url(#SVGID_43_);fill:#85B6F7;}
	.st27{clip-path:url(#SVGID_47_);fill:#1537FF;}
	.st28{opacity:0.44;clip-path:url(#SVGID_49_);fill:url(#SVGID_50_);}
	.st29{clip-path:url(#SVGID_52_);fill:#FDBDFF;}
</style>
<g>
	<g>
		<g>
			<defs>
				<path id="SVGID_1_" d="M188.7,356.2c6.1-24,43.4-56.1,95.1-43c11.7,2.9,21.6,7.6,29.9,13.2c28.5,19.4,38,51.2,33.3,69.8
					l39.4,9.9c0.4-1.6,0.8-3.3,1.2-4.9c11.9-47.2-11.4-93.7-52.1-119.8c-11.9-7.6-25.2-13.4-39.5-17.1
					c-63.5-16-130.2,15.9-145.6,76.9c-0.6,2.5-1,4-1.2,4.9L188.7,356.2z"/>
			</defs>
			<clipPath id="SVGID_2_">
				<use xlink:href="#SVGID_1_"  style="overflow:visible;"/>
			</clipPath>
			
				<ellipse transform="matrix(0.6927 -0.7212 0.7212 0.6927 -182.4801 308.2807)" class="st1" cx="270.5" cy="368.3" rx="85.5" ry="80.8"/>
		</g>
	</g>
	<g>
		
			<image style="overflow:visible;" width="1026" height="959" xlink:href="F3340603.png"  transform="matrix(0.24 0 0 0.24 144.64 260.2)">
		</image>
		<g>
			<defs>
				<path id="SVGID_3_" d="M188.7,356.2c6.1-24,43.4-56.1,95.1-43c11.7,2.9,21.6,7.6,29.9,13.2c28.5,19.4,38,51.2,33.3,69.8
					l39.4,9.9c0.4-1.6,0.8-3.3,1.2-4.9c11.9-47.2-11.4-93.7-52.1-119.8c-11.9-7.6-25.2-13.4-39.5-17.1
					c-63.5-16-130.2,15.9-145.6,76.9c-0.6,2.5-1,4-1.2,4.9L188.7,356.2z"/>
			</defs>
			<clipPath id="SVGID_4_">
				<use xlink:href="#SVGID_3_"  style="overflow:visible;"/>
			</clipPath>
			
				<radialGradient id="SVGID_5_" cx="250.5249" cy="419.9648" r="84.6349" fx="309.5967" fy="389.1913" gradientTransform="matrix(0.9381 0.2369 -0.2903 0.9553 157.438 -92.2537)" gradientUnits="userSpaceOnUse">
				<stop  offset="0.3595" style="stop-color:#000000"/>
				<stop  offset="0.5112" style="stop-color:#020202"/>
				<stop  offset="0.5988" style="stop-color:#0B0B0B"/>
				<stop  offset="0.67" style="stop-color:#191919"/>
				<stop  offset="0.7325" style="stop-color:#2D2D2D"/>
				<stop  offset="0.7893" style="stop-color:#464646"/>
				<stop  offset="0.8419" style="stop-color:#666666"/>
				<stop  offset="0.8913" style="stop-color:#8C8C8C"/>
				<stop  offset="0.9382" style="stop-color:#B8B8B8"/>
				<stop  offset="0.9816" style="stop-color:#E8E8E8"/>
				<stop  offset="1" style="stop-color:#FFFFFF"/>
			</radialGradient>
			<path class="st2" d="M349.9,388.3c-13.6,44.7-60.1,71.9-104,60.8c-43.8-11.1-68.4-56.3-54.8-100.9c13.6-44.7,60.1-71.9,104-60.8
				C339,298.5,363.5,343.7,349.9,388.3z"/>
		</g>
		
			<image style="overflow:visible;opacity:0.69;" width="307" height="588" xlink:href="F334060F.png"  transform="matrix(0.24 0 0 0.24 163.84 275.32)">
		</image>
		
			<image style="overflow:visible;opacity:0.69;" width="306" height="609" xlink:href="F3340601.png"  transform="matrix(0.24 0 0 0.24 309.28 305.56)">
		</image>
	</g>
	<g>
		<g>
			<defs>
				<path id="SVGID_6_" d="M188.7,356.2c6.1-24,43.4-56.1,95.1-43c11.7,2.9,21.6,7.6,29.9,13.2c28.5,19.4,38,51.2,33.3,69.8
					l39.4,9.9c0.4-1.6,0.8-3.3,1.2-4.9c11.9-47.2-11.4-93.7-52.1-119.8c-11.9-7.6-25.2-13.4-39.5-17.1
					c-63.5-16-130.2,15.9-145.6,76.9c-0.6,2.5-1,4-1.2,4.9L188.7,356.2z"/>
			</defs>
			<clipPath id="SVGID_7_">
				<use xlink:href="#SVGID_6_"  style="overflow:visible;"/>
			</clipPath>
			
				<ellipse transform="matrix(0.6927 -0.7212 0.7212 0.6927 -182.4801 308.2807)" class="st3" cx="270.5" cy="368.3" rx="85.5" ry="80.8"/>
		</g>
	</g>
	<g>
		<g>
			<defs>
				<path id="SVGID_8_" d="M188.7,356.2c6.1-24,43.4-56.1,95.1-43c11.7,2.9,21.6,7.6,29.9,13.2c28.5,19.4,38,51.2,33.3,69.8
					l39.4,9.9c0.4-1.6,0.8-3.3,1.2-4.9c11.9-47.2-11.4-93.7-52.1-119.8c-11.9-7.6-25.2-13.4-39.5-17.1
					c-63.5-16-130.2,15.9-145.6,76.9c-0.6,2.5-1,4-1.2,4.9L188.7,356.2z"/>
			</defs>
			<clipPath id="SVGID_9_">
				<use xlink:href="#SVGID_8_"  style="overflow:visible;"/>
			</clipPath>
		</g>
	</g>
</g>
<g>
	<defs>
		<path id="SVGID_10_" d="M335.6,281.5c-11.9-7.6-25.2-13.4-39.5-17.1c-63.5-16-130.2,15.9-145.6,76.9c-1.1,4.4-1.5,5.8-1.5,6.1
			c0,0,0,0,0,0c0,0,0,0,0,0c0,0,0,0,0,0c-0.1,0.4-0.5,1.8-1.5,6c-13.9,55,25.2,115.3,92.7,132.3c67.5,17,130.5-17.5,144.4-72.4
			c1-4,2-8.1,3.1-12.1C399.6,354,376.3,307.5,335.6,281.5z M347.1,396.2c-0.1,0.2-0.1,0.2-0.1,0.4c-5.5,21.8-40.4,53.3-94.2,39.6
			c-53.9-13.6-69.6-57.8-64.1-79.6c0-0.2,0.1-0.4,0.1-0.4c6.1-24,43.4-56.1,95.1-43c11.7,2.9,21.6,7.6,29.9,13.2
			C342.3,345.8,351.8,377.6,347.1,396.2z"/>
	</defs>
	<clipPath id="SVGID_11_">
		<use xlink:href="#SVGID_10_"  style="overflow:visible;"/>
	</clipPath>
	<g class="st4">
		
			<radialGradient id="SVGID_12_" cx="279.381" cy="252.8365" r="66.859" fx="313.1176" fy="223.3798" gradientTransform="matrix(1.503 -1.0384 0.5684 0.8227 -386.5353 431.4856)" gradientUnits="userSpaceOnUse">
			<stop  offset="0" style="stop-color:#09186F"/>
			<stop  offset="0.1593" style="stop-color:#3D498D"/>
			<stop  offset="0.3878" style="stop-color:#8189B5"/>
			<stop  offset="0.5945" style="stop-color:#B7BCD5"/>
			<stop  offset="0.7718" style="stop-color:#DEE0EC"/>
			<stop  offset="0.9128" style="stop-color:#F6F7FA"/>
			<stop  offset="1" style="stop-color:#FFFFFF"/>
		</radialGradient>
		<path class="st5" d="M277.6,280c21,30.4-7,86.1-62.5,124.4S97.6,449.2,76.6,418.8c-21-30.4,7-86.1,62.5-124.4
			S256.6,249.6,277.6,280z"/>
		
			<radialGradient id="SVGID_13_" cx="366.3354" cy="316.834" r="35.967" fx="388.3125" fy="305.1651" gradientTransform="matrix(1.7303 -1.9031 1.6489 1.4992 -937.1337 539.3096)" gradientUnits="userSpaceOnUse">
			<stop  offset="0" style="stop-color:#09186F"/>
			<stop  offset="0.2167" style="stop-color:#3A468C"/>
			<stop  offset="0.707" style="stop-color:#B3B8D3"/>
			<stop  offset="1" style="stop-color:#FFFFFF"/>
		</radialGradient>
		<path class="st6" d="M281.4,248.7c32.8,29.8,31.4,84.6-2.9,122.4s-88.8,44.3-121.5,14.5c-32.8-29.8-31.4-84.6,2.9-122.4
			C194.2,225.4,248.6,218.9,281.4,248.7z"/>
		
			<radialGradient id="SVGID_14_" cx="344.2364" cy="187.507" r="35.9671" fx="362.3851" fy="171.6606" gradientTransform="matrix(1.2289 -1.3516 0.5901 0.5365 -272.4215 683.8502)" gradientUnits="userSpaceOnUse">
			<stop  offset="0" style="stop-color:#09186F"/>
			<stop  offset="0.2167" style="stop-color:#3A468C"/>
			<stop  offset="0.707" style="stop-color:#B3B8D3"/>
			<stop  offset="1" style="stop-color:#FFFFFF"/>
		</radialGradient>
		<path class="st7" d="M305.5,270.6c11.7,10.7,1.4,41.1-23,67.9c-24.4,26.8-53.7,40-65.4,29.3c-11.7-10.7-1.4-41.1,23-67.9
			C264.4,273,293.7,259.9,305.5,270.6z"/>
	</g>
</g>
<g>
	<g>
		<g>
			<g>
				<defs>
					<path id="SVGID_15_" d="M183.9,190.5c13.8-8.1,41.6,7,60.1,38.5c12.4,21,20.6,48.8,9.5,70.2c4-2.3,18.5-10.9,22.5-13.3
						c12.4-20.6,2.9-49.2-9.5-70.2c-15.7-26.7-43.7-48.1-60.1-38.5C200.8,180.6,187.9,188.2,183.9,190.5z"/>
				</defs>
				<clipPath id="SVGID_16_">
					<use xlink:href="#SVGID_15_"  style="overflow:visible;"/>
				</clipPath>
			</g>
			<path class="st8" d="M278,209.9c-25-42.4-63.3-66.2-85.6-53c-22.2,13.1-20,58.1,5,100.6c25,42.4,63.3,66.2,85.6,53
				C305.3,297.3,303,252.3,278,209.9z M208.6,250.8c-18-30.5-19.5-63-3.5-72.5c16.1-9.5,43.7,7.6,61.7,38.1
				c18,30.5,19.5,63,3.5,72.5C254.3,298.4,226.6,281.3,208.6,250.8z"/>
		</g>
		<g>
			
				<image style="overflow:visible;" width="539" height="716" xlink:href="F3340602.png"  transform="matrix(0.24 0 0 0.24 154.72 156.04)">
			</image>
			
				<image style="overflow:visible;" width="409" height="518" xlink:href="F3340600.png"  transform="matrix(0.24 0 0 0.24 183.76 175)">
			</image>
			<g>
				<defs>
					<path id="SVGID_17_" d="M183.9,190.5c13.8-8.1,41.6,7,60.1,38.5c12.4,21,20.6,48.8,9.5,70.2c4-2.3,18.5-10.9,22.5-13.3
						c12.4-20.6,2.9-49.2-9.5-70.2c-15.7-26.7-43.7-48.1-60.1-38.5C200.8,180.6,187.9,188.2,183.9,190.5z"/>
				</defs>
				<clipPath id="SVGID_18_">
					<use xlink:href="#SVGID_17_"  style="overflow:visible;"/>
				</clipPath>
				<g class="st9">
					
						<image style="overflow:visible;" width="529" height="460" xlink:href="F334061C.png"  transform="matrix(0.24 0 0 0.24 147.76 116.2)">
					</image>
				</g>
			</g>
			<path class="st10" d="M278,209.9c-25-42.4-63.3-66.2-85.6-53c-22.2,13.1-20,58.1,5,100.6c25,42.4,63.3,66.2,85.6,53
				C305.3,297.3,303,252.3,278,209.9z M208.6,250.8c-18-30.5-19.5-63-3.5-72.5c16.1-9.5,43.7,7.6,61.7,38.1
				c18,30.5,19.5,63,3.5,72.5C254.3,298.4,226.6,281.3,208.6,250.8z"/>
		</g>
		<g>
			<g>
				<defs>
					<path id="SVGID_19_" d="M183.9,190.5c13.8-8.1,41.6,7,60.1,38.5c12.4,21,20.6,48.8,9.5,70.2c4-2.3,18.5-10.9,22.5-13.3
						c12.4-20.6,2.9-49.2-9.5-70.2c-15.7-26.7-43.7-48.1-60.1-38.5C200.8,180.6,187.9,188.2,183.9,190.5z"/>
				</defs>
				<clipPath id="SVGID_20_">
					<use xlink:href="#SVGID_19_"  style="overflow:visible;"/>
				</clipPath>
			</g>
			<path class="st11" d="M278,209.9c-25-42.4-63.3-66.2-85.6-53c-22.2,13.1-20,58.1,5,100.6c25,42.4,63.3,66.2,85.6,53
				C305.3,297.3,303,252.3,278,209.9z M208.6,250.8c-18-30.5-19.5-63-3.5-72.5c16.1-9.5,43.7,7.6,61.7,38.1
				c18,30.5,19.5,63,3.5,72.5C254.3,298.4,226.6,281.3,208.6,250.8z"/>
		</g>
		<g>
			<g>
				<defs>
					<path id="SVGID_21_" d="M183.9,190.5c13.8-8.1,41.6,7,60.1,38.5c12.4,21,20.6,48.8,9.5,70.2c4-2.3,18.5-10.9,22.5-13.3
						c12.4-20.6,2.9-49.2-9.5-70.2c-15.7-26.7-43.7-48.1-60.1-38.5C200.8,180.6,187.9,188.2,183.9,190.5z"/>
				</defs>
				<clipPath id="SVGID_22_">
					<use xlink:href="#SVGID_21_"  style="overflow:visible;"/>
				</clipPath>
			</g>
		</g>
	</g>
	<g class="st12">
		<g>
			
				<image style="overflow:visible;" width="106.5" height="157.5" xlink:href="C8BA18AF.png"  transform="matrix(1 0 0 1 176.6179 156.7653)"/>
		</g>
	</g>
	<g>
		<defs>
			<path id="SVGID_23_" d="M278,209.9c-24.7-41.9-62.3-65.5-84.7-53.5c0.1-0.1,0.2-0.1,0.3-0.2c-14,8.3-10.5,6.2-24.6,14.5
				c-23.6,13.9-14.9,63.4,6.5,99.7c21.4,36.2,60.1,68.1,83.9,54c13.7-8.1,10.7-6.3,23.7-14c0,0,0,0,0,0c0,0,0,0,0,0
				c0.3-0.2,0.6-0.4,0.9-0.5c-0.1,0.1-0.3,0.1-0.4,0.2C305.2,296.6,302.8,252,278,209.9z M256.7,291.3
				c-15.5-2.1-34.5-17.4-48.1-40.5c-13.7-23.3-17.9-47.7-11.9-62.1c14.6,2.3,33.7,16.7,47.5,40.2
				C255.1,247.4,262.7,271.2,256.7,291.3z"/>
		</defs>
		<clipPath id="SVGID_24_">
			<use xlink:href="#SVGID_23_"  style="overflow:visible;"/>
		</clipPath>
		<g class="st13">
			
				<radialGradient id="SVGID_25_" cx="-184.3403" cy="60.174" r="143.1474" fx="-270.2358" fy="13.0468" gradientTransform="matrix(0.3199 0.6465 -0.4826 0.2388 327.3602 330.4753)" gradientUnits="userSpaceOnUse">
				<stop  offset="7.780200e-02" style="stop-color:#09186F"/>
				<stop  offset="0.2247" style="stop-color:#3D498D"/>
				<stop  offset="0.4354" style="stop-color:#8189B5"/>
				<stop  offset="0.626" style="stop-color:#B7BCD5"/>
				<stop  offset="0.7895" style="stop-color:#DEE0EC"/>
				<stop  offset="0.9196" style="stop-color:#F6F7FA"/>
				<stop  offset="1" style="stop-color:#FFFFFF"/>
			</radialGradient>
			<path class="st14" d="M285.1,318.2c-38.2,18.9-89.6-7.2-114.9-58.3C145,208.8,155.4,152,193.6,133.1
				c38.2-18.9,89.6,7.2,114.9,58.3C333.7,242.6,323.3,299.3,285.1,318.2z"/>
			
				<radialGradient id="SVGID_26_" cx="-243.5277" cy="48.1086" r="84.4527" fx="-289.5262" fy="49.2993" gradientTransform="matrix(0.4435 0.8963 -0.5125 0.2536 332.5663 436.3289)" gradientUnits="userSpaceOnUse">
				<stop  offset="0" style="stop-color:#09186F"/>
				<stop  offset="0.1593" style="stop-color:#3D498D"/>
				<stop  offset="0.3878" style="stop-color:#8189B5"/>
				<stop  offset="0.5945" style="stop-color:#B7BCD5"/>
				<stop  offset="0.7718" style="stop-color:#DEE0EC"/>
				<stop  offset="0.9128" style="stop-color:#F6F7FA"/>
				<stop  offset="1" style="stop-color:#FFFFFF"/>
			</radialGradient>
			<path class="st15" d="M237.4,305.9c-23.9,11.8-60.1-12.5-80.7-54.3c-20.7-41.8-18.1-85.3,5.8-97.1c23.9-11.8,60.1,12.5,80.7,54.3
				C263.9,250.6,261.3,294.1,237.4,305.9z"/>
			
				<radialGradient id="SVGID_27_" cx="-249.2316" cy="445.2292" r="102.6333" fx="-305.1324" fy="446.6764" gradientTransform="matrix(0.2735 0.5527 -0.2299 0.1138 428.145 292.5632)" gradientUnits="userSpaceOnUse">
				<stop  offset="0" style="stop-color:#09186F"/>
				<stop  offset="0.1593" style="stop-color:#3D498D"/>
				<stop  offset="0.3878" style="stop-color:#8189B5"/>
				<stop  offset="0.5945" style="stop-color:#B7BCD5"/>
				<stop  offset="0.7718" style="stop-color:#DEE0EC"/>
				<stop  offset="0.9128" style="stop-color:#F6F7FA"/>
				<stop  offset="1" style="stop-color:#FFFFFF"/>
			</radialGradient>
			<path class="st16" d="M285.7,262.2c-13,6.4-36.2-13.7-51.7-45.1c-15.5-31.3-17.5-62-4.5-68.4c13-6.4,36.2,13.7,51.7,45.1
				C296.7,225.1,298.7,255.8,285.7,262.2z"/>
		</g>
	</g>
</g>
<g>
	<g>
		
			<image style="overflow:visible;" width="1347" height="889" xlink:href="F334061D.png"  transform="matrix(0.24 0 0 0.24 56.32 1.72)">
		</image>
		
			<image style="overflow:visible;opacity:0.8;" width="705" height="253" xlink:href="F334061E.png"  transform="matrix(0.24 0 0 0.24 199.12 102.76)">
		</image>
		
			<image style="overflow:visible;opacity:0.8;" width="705" height="253" xlink:href="F334061F.png"  transform="matrix(0.24 0 0 0.24 81.04 8.2)">
		</image>
	</g>
</g>
<g>
	<g>
		<g>
			
				<image style="overflow:visible;" width="1862" height="1657" xlink:href="2684DF3E.png"  transform="matrix(0.24 0 0 0.24 547.36 212.92)">
			</image>
			
				<image style="overflow:visible;opacity:0.8;" width="586" height="989" xlink:href="2684DF3A.png"  transform="matrix(0.24 0 0 0.24 563.92 283.24)">
			</image>
		</g>
	</g>
	<g>
		<defs>
			<path id="SVGID_28_" d="M980.2,291.5c-11.9-15.8-11.2-14.9-23.1-30.7c-55.7-74.1-167.7-52.1-259.6,7.1
				c-8.7,5.6-17.2,11.5-25.4,17.7c-69,51.9-123.7,125.6-125.9,193c-0.8,26,6.1,51.1,23.1,73.7c11.9,15.8,11.2,14.9,23.1,30.7
				c37.9,50.4,155.2,33.7,266-49.6S1018,341.9,980.2,291.5z M792.9,446.3c-87.9,66.1-146.3,58.3-146.4,58.1
				c-0.1-0.1-0.2-0.3-0.3-0.4c0,0-0.3-4.9,1.2-13.3c4.1-22,21-68.5,89-119.5c8.1-6.1,16-11.5,23.6-16.3
				c80.3-51,129.3-33.7,129.4-33.6c0.1,0.1,0.2,0.3,0.3,0.4C889.8,321.8,880.7,380.3,792.9,446.3z"/>
		</defs>
		<clipPath id="SVGID_29_">
			<use xlink:href="#SVGID_28_"  style="overflow:visible;"/>
		</clipPath>
		<g class="st17">
			
				<radialGradient id="SVGID_30_" cx="897.3478" cy="439.5137" r="101.9227" fx="910.6307" fy="385.0255" gradientTransform="matrix(-0.1613 -1.5054 2.4681 -0.2644 -174.5919 1801.4569)" gradientUnits="userSpaceOnUse">
				<stop  offset="1.805110e-02" style="stop-color:#09186F"/>
				<stop  offset="5.659138e-02" style="stop-color:#142376"/>
				<stop  offset="0.4099" style="stop-color:#7880B0"/>
				<stop  offset="0.6951" style="stop-color:#C0C4DA"/>
				<stop  offset="0.898" style="stop-color:#EEEFF5"/>
				<stop  offset="1" style="stop-color:#FFFFFF"/>
			</radialGradient>
			<path class="st18" d="M749,180.9c138.9-14.9,258.9,41.7,268,126.5c9.1,84.7-96.2,165.5-235.1,180.4
				c-138.9,14.9-258.9-41.7-268-126.5C504.8,276.6,610.1,195.8,749,180.9z"/>
			
				<radialGradient id="SVGID_31_" cx="627.0623" cy="425.7354" r="55.9854" fx="617.0892" fy="376.7286" gradientTransform="matrix(0.6462 0.5106 -0.9226 1.1677 604.4995 -464.2884)" gradientUnits="userSpaceOnUse">
				<stop  offset="1.805110e-02" style="stop-color:#09186F"/>
				<stop  offset="5.659138e-02" style="stop-color:#142376"/>
				<stop  offset="0.4099" style="stop-color:#7880B0"/>
				<stop  offset="0.6951" style="stop-color:#C0C4DA"/>
				<stop  offset="0.898" style="stop-color:#EEEFF5"/>
				<stop  offset="1" style="stop-color:#FFFFFF"/>
			</radialGradient>
			<path class="st19" d="M653.1,381.6c-28.5,36.1-67.9,52.6-87.8,36.8c-20-15.8-13.1-57.9,15.5-94c28.5-36.1,67.9-52.6,87.8-36.8
				C688.6,303.4,681.6,345.5,653.1,381.6z"/>
			
				<radialGradient id="SVGID_32_" cx="739.42" cy="381.6677" r="55.9867" fx="726.8827" fy="347.4811" gradientTransform="matrix(-1.670000e-02 0.8257 2.3873 4.830000e-02 -44.14 -370.909)" gradientUnits="userSpaceOnUse">
				<stop  offset="1.805110e-02" style="stop-color:#09186F"/>
				<stop  offset="5.659138e-02" style="stop-color:#142376"/>
				<stop  offset="0.4099" style="stop-color:#7880B0"/>
				<stop  offset="0.6951" style="stop-color:#C0C4DA"/>
				<stop  offset="0.898" style="stop-color:#EEEFF5"/>
				<stop  offset="1" style="stop-color:#FFFFFF"/>
			</radialGradient>
			<path class="st20" d="M853.7,304.3c73.8,1.5,134.1-18,134.6-43.5c0.5-25.5-58.9-47.4-132.7-48.9c-73.8-1.5-134.1,18-134.6,43.5
				C720.5,280.9,779.9,302.8,853.7,304.3z"/>
		</g>
	</g>
	<g>
		<g>
			<g>
				
					<image style="overflow:visible;" width="865" height="1143" xlink:href="2684DF25.png"  transform="matrix(0.24 0 0 0.24 706.96 6.52)">
				</image>
				
					<image style="overflow:visible;opacity:0.8;" width="148" height="640" xlink:href="2684DF26.png"  transform="matrix(0.24 0 0 0.24 834.64 14.92)">
				</image>
			</g>
		</g>
		<g>
			<defs>
				<path id="SVGID_33_" d="M887,22.2c-10.4-4.8-9.8-4.5-20.2-9.3c-48.8-22.5-100,19.5-130.6,75c-2.9,5.2-5.6,10.6-8.1,16
					c-21,45.5-28.7,98.1-11.2,133.2c6.7,13.5,17.2,24.4,32,31.3c10.4,4.8,9.8,4.5,20.2,9.3c33.2,15.3,88.5-25.4,122.2-98.4
					C925,106.3,920.2,37.5,887,22.2z M833.9,152.7c-26.7,57.9-58.7,70-58.8,69.9c-0.1,0-0.2-0.1-0.3-0.1c0,0-1.5-2.4-3-7.1
					c-3.9-12.4-8.1-40.7,12.6-85.5c2.5-5.3,5-10.3,7.5-14.8c27-48.1,56.8-52.8,56.9-52.7c0.1,0,0.2,0.1,0.3,0.1
					C849.2,62.5,860.6,94.8,833.9,152.7z"/>
			</defs>
			<clipPath id="SVGID_34_">
				<use xlink:href="#SVGID_33_"  style="overflow:visible;"/>
			</clipPath>
			<g class="st21">
				<g>
					
						<radialGradient id="SVGID_35_" cx="719.89" cy="285.3867" r="75.6461" fx="676.7601" fy="253.0879" gradientTransform="matrix(0.9556 0.2947 -0.4386 1.4221 161.7854 -391.1535)" gradientUnits="userSpaceOnUse">
						<stop  offset="1.805110e-02" style="stop-color:#09186F"/>
						<stop  offset="5.659138e-02" style="stop-color:#142376"/>
						<stop  offset="0.4099" style="stop-color:#7880B0"/>
						<stop  offset="0.6951" style="stop-color:#C0C4DA"/>
						<stop  offset="0.898" style="stop-color:#EEEFF5"/>
						<stop  offset="1" style="stop-color:#FFFFFF"/>
					</radialGradient>
					<path class="st22" d="M796.8,249.1c-18.3,59.4-65.5,97.6-105.5,85.3c-39.9-12.3-57.4-70.5-39.1-129.9
						c18.3-59.4,65.5-97.6,105.5-85.3C797.6,131.6,815.2,189.7,796.8,249.1z"/>
					
						<radialGradient id="SVGID_36_" cx="719.8894" cy="265.7256" r="55.9851" fx="687.9693" fy="241.8215" gradientTransform="matrix(0.9556 0.2947 -0.4386 1.4221 161.7854 -391.1535)" gradientUnits="userSpaceOnUse">
						<stop  offset="1.805110e-02" style="stop-color:#09186F"/>
						<stop  offset="5.659138e-02" style="stop-color:#142376"/>
						<stop  offset="0.4099" style="stop-color:#7880B0"/>
						<stop  offset="0.6951" style="stop-color:#C0C4DA"/>
						<stop  offset="0.898" style="stop-color:#EEEFF5"/>
						<stop  offset="1" style="stop-color:#FFFFFF"/>
					</radialGradient>
					<path class="st23" d="M786.7,215.4c-13.6,44-48.5,72.2-78.1,63.1c-29.5-9.1-42.5-52.1-28.9-96.1c13.6-44,48.5-72.2,78.1-63.1
						C787.3,128.4,800.2,171.4,786.7,215.4z"/>
				</g>
			</g>
		</g>
	</g>
	<g>
		<g>
			<g>
				<defs>
					<path id="SVGID_37_" d="M715.4,96.4c-9.6-17.6-45.4-35.3-83.3-14.6c-8.6,4.7-15.4,10.3-20.8,16.4c-18.5,21-19.6,47.9-12.1,61.5
						l-28.9,15.7c-0.7-1.2-1.3-2.4-2-3.6c-18.9-34.7-9.9-75.9,16.8-104.6c7.8-8.3,17.1-15.6,27.6-21.4
						C659.3,20.6,718,32.3,742.4,77.1c1,1.8,1.6,2.9,2,3.6L715.4,96.4z"/>
				</defs>
				<clipPath id="SVGID_38_">
					<use xlink:href="#SVGID_37_"  style="overflow:visible;"/>
				</clipPath>
				
					<ellipse transform="matrix(0.5267 -0.8501 0.8501 0.5267 205.3075 613.5401)" class="st24" cx="653.6" cy="122.4" rx="65.5" ry="69.4"/>
			</g>
		</g>
		<g>
			
				<image style="overflow:visible;" width="826" height="791" xlink:href="2684DF24.png"  transform="matrix(0.24 0 0 0.24 558.16 32.68)">
			</image>
			<g>
				<defs>
					<path id="SVGID_39_" d="M715.4,96.4c-9.6-17.6-45.4-35.3-83.3-14.6c-8.6,4.7-15.4,10.3-20.8,16.4c-18.5,21-19.6,47.9-12.1,61.5
						l-28.9,15.7c-0.7-1.2-1.3-2.4-2-3.6c-18.9-34.7-9.9-75.9,16.8-104.6c7.8-8.3,17.1-15.6,27.6-21.4
						C659.3,20.6,718,32.3,742.4,77.1c1,1.8,1.6,2.9,2,3.6L715.4,96.4z"/>
				</defs>
				<clipPath id="SVGID_40_">
					<use xlink:href="#SVGID_39_"  style="overflow:visible;"/>
				</clipPath>
				
					<radialGradient id="SVGID_41_" cx="601.4185" cy="-23.7482" r="68.6187" fx="649.3116" fy="-48.6982" gradientTransform="matrix(-0.85 0.4624 0.5184 0.8534 1177.1279 -135.4247)" gradientUnits="userSpaceOnUse">
					<stop  offset="0.3595" style="stop-color:#000000"/>
					<stop  offset="0.5112" style="stop-color:#020202"/>
					<stop  offset="0.5988" style="stop-color:#0B0B0B"/>
					<stop  offset="0.67" style="stop-color:#191919"/>
					<stop  offset="0.7325" style="stop-color:#2D2D2D"/>
					<stop  offset="0.7893" style="stop-color:#464646"/>
					<stop  offset="0.8419" style="stop-color:#666666"/>
					<stop  offset="0.8913" style="stop-color:#8C8C8C"/>
					<stop  offset="0.9382" style="stop-color:#B8B8B8"/>
					<stop  offset="0.9816" style="stop-color:#E8E8E8"/>
					<stop  offset="1" style="stop-color:#FFFFFF"/>
				</radialGradient>
				<path class="st25" d="M595.3,154.1c19.6,32.3,61.7,44.4,93.9,26.8c32.2-17.5,42.4-57.9,22.8-90.3
					c-19.6-32.3-61.7-44.4-93.9-26.8C585.8,81.4,575.6,121.8,595.3,154.1z"/>
			</g>
			
				<image style="overflow:visible;opacity:0.69;" width="311" height="430" xlink:href="2684DF2A.png"  transform="matrix(0.24 0 0 0.24 662.32 41.56)">
			</image>
			
				<image style="overflow:visible;opacity:0.69;" width="314" height="448" xlink:href="2684DF2D.png"  transform="matrix(0.24 0 0 0.24 563.2 89.56)">
			</image>
		</g>
		<g>
			<g>
				<defs>
					<path id="SVGID_42_" d="M715.4,96.4c-9.6-17.6-45.4-35.3-83.3-14.6c-8.6,4.7-15.4,10.3-20.8,16.4c-18.5,21-19.6,47.9-12.1,61.5
						l-28.9,15.7c-0.7-1.2-1.3-2.4-2-3.6c-18.9-34.7-9.9-75.9,16.8-104.6c7.8-8.3,17.1-15.6,27.6-21.4
						C659.3,20.6,718,32.3,742.4,77.1c1,1.8,1.6,2.9,2,3.6L715.4,96.4z"/>
				</defs>
				<clipPath id="SVGID_43_">
					<use xlink:href="#SVGID_42_"  style="overflow:visible;"/>
				</clipPath>
				
					<ellipse transform="matrix(0.5267 -0.8501 0.8501 0.5267 205.3075 613.5401)" class="st26" cx="653.6" cy="122.4" rx="65.5" ry="69.4"/>
			</g>
		</g>
		<g>
			<g>
				<defs>
					<path id="SVGID_44_" d="M715.4,96.4c-9.6-17.6-45.4-35.3-83.3-14.6c-8.6,4.7-15.4,10.3-20.8,16.4c-18.5,21-19.6,47.9-12.1,61.5
						l-28.9,15.7c-0.7-1.2-1.3-2.4-2-3.6c-18.9-34.7-9.9-75.9,16.8-104.6c7.8-8.3,17.1-15.6,27.6-21.4
						C659.3,20.6,718,32.3,742.4,77.1c1,1.8,1.6,2.9,2,3.6L715.4,96.4z"/>
				</defs>
				<clipPath id="SVGID_45_">
					<use xlink:href="#SVGID_44_"  style="overflow:visible;"/>
				</clipPath>
			</g>
		</g>
	</g>
</g>
<g>
	<g>
		<g>
			<defs>
				<path id="SVGID_46_" d="M28.7,256.9c3.2-13.9,24.4-32.7,54.2-25.7c6.7,1.6,12.5,4.1,17.3,7.3c16.6,10.9,22.4,29,19.9,39.8
					l22.8,5.3c0.2-0.9,0.4-1.9,0.7-2.8c6.4-27.3-7.5-53.8-31.2-68.3c-6.9-4.2-14.6-7.5-22.9-9.4c-36.7-8.6-74.7,10.5-82.9,45.8
					c-0.3,1.4-0.5,2.3-0.7,2.8L28.7,256.9z"/>
			</defs>
			<clipPath id="SVGID_47_">
				<use xlink:href="#SVGID_46_"  style="overflow:visible;"/>
			</clipPath>
			
				<ellipse transform="matrix(0.6797 -0.7335 0.7335 0.6797 -168.6241 139.9464)" class="st27" cx="75.9" cy="263" rx="49.2" ry="46.5"/>
		</g>
	</g>
	<g>
		
			<image style="overflow:visible;" width="591" height="551" xlink:href="2684DF2E.png"  transform="matrix(0.24 0 0 0.24 3.52 200.92)">
		</image>
		<g>
			<defs>
				<path id="SVGID_48_" d="M28.7,256.9c3.2-13.9,24.4-32.7,54.2-25.7c6.7,1.6,12.5,4.1,17.3,7.3c16.6,10.9,22.4,29,19.9,39.8
					l22.8,5.3c0.2-0.9,0.4-1.9,0.7-2.8c6.4-27.3-7.5-53.8-31.2-68.3c-6.9-4.2-14.6-7.5-22.9-9.4c-36.7-8.6-74.7,10.5-82.9,45.8
					c-0.3,1.4-0.5,2.3-0.7,2.8L28.7,256.9z"/>
			</defs>
			<clipPath id="SVGID_49_">
				<use xlink:href="#SVGID_48_"  style="overflow:visible;"/>
			</clipPath>
			
				<radialGradient id="SVGID_50_" cx="-31.1892" cy="283.7299" r="48.6814" fx="2.7885" fy="266.0292" gradientTransform="matrix(0.9422 0.2201 -0.2731 0.9604 182.7945 -2.5879)" gradientUnits="userSpaceOnUse">
				<stop  offset="0.3595" style="stop-color:#000000"/>
				<stop  offset="0.5112" style="stop-color:#020202"/>
				<stop  offset="0.5988" style="stop-color:#0B0B0B"/>
				<stop  offset="0.67" style="stop-color:#191919"/>
				<stop  offset="0.7325" style="stop-color:#2D2D2D"/>
				<stop  offset="0.7893" style="stop-color:#464646"/>
				<stop  offset="0.8419" style="stop-color:#666666"/>
				<stop  offset="0.8913" style="stop-color:#8C8C8C"/>
				<stop  offset="0.9382" style="stop-color:#B8B8B8"/>
				<stop  offset="0.9816" style="stop-color:#E8E8E8"/>
				<stop  offset="1" style="stop-color:#FFFFFF"/>
			</radialGradient>
			<path class="st28" d="M121.8,273.8c-7.3,25.8-33.8,42-59.2,36c-25.3-5.9-39.9-31.6-32.6-57.5c7.3-25.8,33.8-42,59.2-36
				S129.1,247.9,121.8,273.8z"/>
		</g>
		
			<image style="overflow:visible;opacity:0.69;" width="173" height="340" xlink:href="2684DF2C.png"  transform="matrix(0.24 0 0 0.24 14.56 210.04)">
		</image>
		
			<image style="overflow:visible;opacity:0.69;" width="173" height="352" xlink:href="2684DF20.png"  transform="matrix(0.24 0 0 0.24 99.04 226.12)">
		</image>
	</g>
	<g>
		<g>
			<defs>
				<path id="SVGID_51_" d="M28.7,256.9c3.2-13.9,24.4-32.7,54.2-25.7c6.7,1.6,12.5,4.1,17.3,7.3c16.6,10.9,22.4,29,19.9,39.8
					l22.8,5.3c0.2-0.9,0.4-1.9,0.7-2.8c6.4-27.3-7.5-53.8-31.2-68.3c-6.9-4.2-14.6-7.5-22.9-9.4c-36.7-8.6-74.7,10.5-82.9,45.8
					c-0.3,1.4-0.5,2.3-0.7,2.8L28.7,256.9z"/>
			</defs>
			<clipPath id="SVGID_52_">
				<use xlink:href="#SVGID_51_"  style="overflow:visible;"/>
			</clipPath>
			
				<ellipse transform="matrix(0.6797 -0.7335 0.7335 0.6797 -168.6241 139.9464)" class="st29" cx="75.9" cy="263" rx="49.2" ry="46.5"/>
		</g>
	</g>
	<g>
		<g>
			<defs>
				<path id="SVGID_53_" d="M28.7,256.9c3.2-13.9,24.4-32.7,54.2-25.7c6.7,1.6,12.5,4.1,17.3,7.3c16.6,10.9,22.4,29,19.9,39.8
					l22.8,5.3c0.2-0.9,0.4-1.9,0.7-2.8c6.4-27.3-7.5-53.8-31.2-68.3c-6.9-4.2-14.6-7.5-22.9-9.4c-36.7-8.6-74.7,10.5-82.9,45.8
					c-0.3,1.4-0.5,2.3-0.7,2.8L28.7,256.9z"/>
			</defs>
			<clipPath id="SVGID_54_">
				<use xlink:href="#SVGID_53_"  style="overflow:visible;"/>
			</clipPath>
		</g>
	</g>
</g>
</svg>
