<svg width="197" height="246" viewBox="0 0 197 246" fill="none" xmlns="http://www.w3.org/2000/svg">
<path d="M62.1836 238.927C72.4759 243.077 83.6357 245.539 95.3582 245.937C111.23 246.5 126.306 243.218 139.81 236.981C123.633 230.628 108.98 221.344 96.4836 209.785C88.3716 222.774 76.3912 233.019 62.1836 238.927Z" fill="#2B63FF"/>
<path d="M96.4817 209.763C67.9492 183.364 50.6234 145.172 52.1004 103.252C52.1473 101.893 52.2176 100.533 52.3114 99.1729C47.2004 97.86 41.855 97.0395 36.3688 96.8519C28.5148 96.5706 20.8952 97.5553 13.6976 99.5715C6.07796 112.935 1.48274 128.245 0.920066 144.656C-0.556966 186.998 25.0684 223.97 62.2052 238.928C76.4128 232.997 88.3932 222.775 96.5051 209.786L96.4817 209.763Z" fill="#4F7EFF"/>
<path d="M96.4819 209.766C103.117 199.145 107.149 186.696 107.618 173.285C108.861 138.001 85.1345 107.639 52.3116 99.1758C52.2178 100.536 52.1474 101.895 52.1006 103.255C50.647 145.151 67.9493 183.367 96.4819 209.766Z" fill="#2B63FF"/>
<path d="M103.938 0C85.2527 14.9813 70.4823 34.722 61.5498 57.487C56.4388 70.5224 53.2269 84.5191 52.2891 99.1956C85.112 107.659 108.838 138.02 107.596 173.305C107.127 186.716 103.094 199.165 96.4593 209.785C108.956 221.344 123.609 230.628 139.786 236.982C172.257 221.977 195.28 189.67 196.616 151.478C197.484 126.72 187.965 104.682 174.531 86.043C160.37 66.3492 103.938 0 103.938 0Z" fill="#0044FF"/>
</svg>
