<svg width="230" height="224" viewBox="0 0 230 224" fill="none" xmlns="http://www.w3.org/2000/svg">
<path d="M76.9294 180.364C76.9294 181.291 75.8629 182.032 74.5181 182.032C72.9879 182.171 71.9214 181.43 71.9214 180.364C71.9214 179.438 72.9879 178.697 74.3327 178.697C75.7238 178.558 76.9294 179.299 76.9294 180.364ZM62.5081 178.28C62.1835 179.206 63.1109 180.272 64.502 180.55C65.7077 181.013 67.0988 180.55 67.377 179.623C67.6552 178.697 66.7742 177.632 65.3831 177.215C64.1774 176.891 62.8327 177.354 62.5081 178.28ZM83.004 177.493C81.6593 177.817 80.7319 178.697 80.871 179.762C81.0101 180.689 82.2157 181.291 83.6069 180.967C84.9516 180.642 85.879 179.762 85.7399 178.836C85.6008 177.956 84.3488 177.354 83.004 177.493ZM113.516 0C49.1996 0 0 48.7734 0 113.017C0 164.385 32.3669 208.341 78.5988 223.811C84.5343 224.877 86.621 221.217 86.621 218.207C86.621 215.335 86.4819 199.494 86.4819 189.767C86.4819 189.767 54.0222 196.715 47.2056 175.964C47.2056 175.964 41.9194 162.485 34.3145 159.012C34.3145 159.012 23.6956 151.74 35.0565 151.879C35.0565 151.879 46.6028 152.805 52.9556 163.829C63.1109 181.708 80.129 176.566 86.7601 173.509C87.8266 166.098 90.8407 160.957 94.1794 157.9C68.2581 155.028 42.1048 151.276 42.1048 106.718C42.1048 93.9804 45.629 87.5884 53.0484 79.4363C51.8427 76.4256 47.9012 64.0122 54.254 47.986C63.9456 44.9753 86.25 60.492 86.25 60.492C95.5242 57.8982 105.494 56.555 115.371 56.555C125.248 56.555 135.218 57.8982 144.492 60.492C144.492 60.492 166.796 44.929 176.488 47.986C182.841 64.0586 178.899 76.4256 177.694 79.4363C185.113 87.6347 189.657 94.0267 189.657 106.718C189.657 151.415 162.345 154.982 136.423 157.9C140.69 161.559 144.306 168.507 144.306 179.392C144.306 195.001 144.167 214.316 144.167 218.114C144.167 221.125 146.3 224.784 152.19 223.719C198.56 208.341 230 164.385 230 113.017C230 48.7734 177.833 0 113.516 0ZM45.0726 159.753C44.4698 160.216 44.6089 161.281 45.3972 162.161C46.1391 162.902 47.2056 163.227 47.8085 162.624C48.4113 162.161 48.2722 161.096 47.4839 160.216C46.7419 159.475 45.6754 159.151 45.0726 159.753ZM40.0645 156.001C39.7399 156.603 40.2036 157.344 41.131 157.807C41.873 158.271 42.8004 158.132 43.125 157.483C43.4496 156.881 42.9859 156.14 42.0585 155.677C41.131 155.399 40.3891 155.538 40.0645 156.001ZM55.0887 172.49C54.3468 173.092 54.625 174.482 55.6915 175.362C56.7581 176.427 58.1028 176.566 58.7056 175.825C59.3085 175.223 59.0302 173.834 58.1028 172.953C57.0827 171.888 55.6915 171.749 55.0887 172.49ZM49.8024 165.681C49.0605 166.145 49.0605 167.349 49.8024 168.414C50.5444 169.48 51.7964 169.943 52.3992 169.48C53.1411 168.877 53.1411 167.673 52.3992 166.608C51.75 165.543 50.5444 165.079 49.8024 165.681Z" fill="#0044FF"/>
</svg>
