<?xml version="1.0" encoding="utf-8"?>
<!-- Generator: Adobe Illustrator 24.0.0, SVG Export Plug-In . SVG Version: 6.00 Build 0)  -->
<svg version="1.1" id="Capa_1" xmlns="http://www.w3.org/2000/svg" xmlns:xlink="http://www.w3.org/1999/xlink" x="0px" y="0px"
	 viewBox="0 0 90 90" style="enable-background:new 0 0 90 90;" xml:space="preserve">
<style type="text/css">
	.st0{fill:#0E2DA5;stroke:#0E2DA5;stroke-width:2;stroke-miterlimit:10;}
	.st1{fill:#0E2DA5;}
</style>
<g>
	<path class="st1" d="M0.7,27.5C2.8,28.6,5,29.8,7.1,31c12.1,6.7,24.1,13.4,36.2,20.2c1.2,0.7,2.2,0.6,3.3,0
		c13.7-7.7,27.4-15.3,41.1-23c0.4-0.2,0.9-0.5,1.4-0.7c0,0.3,0,0.6,0,0.8c0,12.8,0,25.6,0,38.4c0,4.1-2.8,7-6.9,7.3
		c-0.3,0-0.6,0-0.9,0c-24.3,0-48.7,0-73,0c-2.5,0-4.7-0.6-6.2-2.7c-0.7-1-1.1-2.2-1.6-3.3C0.7,54.4,0.7,41,0.7,27.5z"/>
	<path class="st1" d="M45,16.4c12.3,0,24.5,0,36.8,0c3.4,0,6.1,1.9,7.1,4.9c0.2,0.6,0.1,0.9-0.5,1.2c-14.3,7.9-28.5,15.9-42.8,23.9
		c-0.5,0.3-0.8,0.2-1.3,0C30,38.4,15.8,30.5,1.5,22.5c-0.6-0.3-0.7-0.6-0.5-1.2c1-2.9,3.6-4.9,6.9-4.9c4.5,0,9,0,13.6,0
		C29.3,16.4,37.1,16.4,45,16.4z"/>
</g>
</svg>
