<?xml version="1.0" encoding="utf-8"?>
<!-- Generator: Adobe Illustrator 24.0.0, SVG Export Plug-In . SVG Version: 6.00 Build 0)  -->
<svg version="1.1" id="Capa_1" xmlns="http://www.w3.org/2000/svg" xmlns:xlink="http://www.w3.org/1999/xlink" x="0px" y="0px"
	 viewBox="0 0 90 90" style="enable-background:new 0 0 90 90;" xml:space="preserve">
<style type="text/css">
	.st0{fill:#0E2DA5;stroke:#0E2DA5;stroke-width:2;stroke-miterlimit:10;}
	.st1{fill:#0E2DA5;}
</style>
<path class="st1" d="M0.6,20.9c0.3-1,0.5-2.1,0.8-3.1c0.7-2.3,2-4.2,3.7-5.9C8,8.9,11,6,13.9,3C17,0,21.4,0,24.5,3
	c4.1,4,8.1,8.1,12.2,12.2c3.1,3.1,3.1,7.5,0,10.6c-2,2.1-4.1,4.1-6.1,6.1c-3,3-3,7.1,0,10.1c5.8,5.8,11.7,11.7,17.5,17.5
	c3,3,7.1,3,10.1,0c2-2,4-4,6.1-6.1c3.1-3.1,7.5-3.2,10.7-0.1c4.1,4,8.1,8.1,12.1,12.1c3.1,3.1,3.1,7.5,0,10.7
	c-2.9,2.9-5.8,5.8-8.7,8.8c-2.4,2.4-5.3,4-8.7,4.4c-0.1,0-0.2,0.1-0.3,0.1c-1.1,0-2.2,0-3.3,0c-0.8-0.1-1.5-0.3-2.3-0.5
	c-5.6-1.4-10.8-3.6-15.8-6.4C34.5,75.2,23.5,65.2,14.4,53c-5-6.6-9.1-13.8-11.8-21.6c-0.8-2.4-1.3-4.9-2-7.3
	C0.6,23,0.6,21.9,0.6,20.9z"/>
</svg>
