<?xml version="1.0" encoding="utf-8"?>
<!-- Generator: Adobe Illustrator 24.0.0, SVG Export Plug-In . SVG Version: 6.00 Build 0)  -->
<svg version="1.1" id="Capa_1" xmlns="http://www.w3.org/2000/svg" xmlns:xlink="http://www.w3.org/1999/xlink" x="0px" y="0px"
	 viewBox="0 0 550.6 141" style="enable-background:new 0 0 550.6 141;" xml:space="preserve">
<style type="text/css">
	.st0{fill:#0E2DA5;stroke:#0E2DA5;stroke-width:2;stroke-miterlimit:10;}
	.st1{fill:#0E2DA5;}
</style>
<path class="st0" d="M39.3,39.6h44.3c0.5,0,0.7,0.2,0.7,0.6c0,0.4-0.2,0.6-0.7,0.6H39.3c-0.5,0-0.7-0.2-0.7-0.6
	C38.6,39.9,38.8,39.6,39.3,39.6z M39.3,70.6h39.8c0.5,0,0.7,0.2,0.7,0.7c0,0.5-0.2,0.7-0.7,0.7H39.3c-0.5,0-0.7-0.2-0.7-0.7
	C38.6,70.8,38.8,70.6,39.3,70.6z M39.3,101.7h44.3c0.5,0,0.7,0.2,0.7,0.6c0,0.4-0.2,0.6-0.7,0.6H39.3c-0.5,0-0.7-0.2-0.7-0.6
	C38.6,101.9,38.8,101.7,39.3,101.7z"/>
<path class="st0" d="M186.7,39.6c0.5,0,0.7,0.2,0.7,0.7v61.9c0,0.5-0.2,0.7-0.7,0.7c-0.3,0-0.5-0.1-0.6-0.3L143,42.4v59.8
	c0,0.5-0.2,0.7-0.6,0.7c-0.4,0-0.6-0.2-0.6-0.7V40.3c0-0.5,0.2-0.7,0.7-0.7c0.2,0,0.4,0.1,0.5,0.3l43.1,60.2V40.3
	C186,39.9,186.2,39.6,186.7,39.6z"/>
<path class="st0" d="M245.5,39.6h8.8c12.7,0,22.1,3,28.2,9c5.3,5.3,7.9,12.8,7.9,22.6c0,9.8-2.6,17.3-7.9,22.6c-6.1,6-15.5,9-28.2,9
	h-8.8c-0.5,0-0.7-0.2-0.7-0.6c0-0.4,0.2-0.6,0.7-0.6h8.8c12.4,0,21.4-2.9,27.2-8.7c5-5,7.5-12.2,7.5-21.6c0-9.4-2.5-16.6-7.5-21.6
	c-5.8-5.8-14.8-8.7-27.2-8.7h-8.8c-0.5,0-0.7-0.2-0.7-0.6C244.8,39.9,245,39.6,245.5,39.6z"/>
<path class="st0" d="M378.7,99.9c-2.5,0.6-5,0.9-7.8,0.9c-8.2,0-14.9-2.8-20.3-8.4c-5.4-5.6-8-12.5-8-20.7c0-8.2,2.7-15.1,8-20.7
	c0.1-0.1,0.2-0.2,0.4-0.4c0.5-0.6,1.1-1.1,1.6-1.6c-0.8,0.1-1.6,0.3-2.3,0.5l0,0c-0.5,0.5-1.1,1.1-1.6,1.7c-1.4,1.6-2.5,3.3-3.6,5.2
	c-2.5,4.6-3.8,9.7-3.8,15.2c0,5.5,1.2,10.6,3.8,15.2c2.5,4.6,6,8.3,10.5,11c4.5,2.7,9.6,4.1,15.2,4.1c2,0,4-0.2,5.9-0.5
	c0.8-0.1,1.6-0.3,2.4-0.5c0.2-0.2,0.4-0.4,0.6-0.5c0.4-0.4,0.9-0.9,1.2-1.3C380.3,99.5,379.6,99.7,378.7,99.9z"/>
<path class="st1" d="M380,100.7c-0.6,0.6-1.3,1.2-2,1.7c0.9-0.1,1.7-0.3,2.5-0.5c0.2-0.2,0.4-0.4,0.6-0.6c0.5-0.4,0.9-0.9,1.3-1.4
	C381.6,100.3,380.8,100.5,380,100.7z M350.3,48.2c-0.6,0.6-1.1,1.2-1.7,1.8c0.8-0.3,1.6-0.5,2.4-0.6c0.6-0.6,1.1-1.1,1.7-1.6
	C351.9,47.8,351.1,48,350.3,48.2L350.3,48.2z"/>
<path class="st1" d="M404.3,71.3c0,8.7-3.2,16.2-9.5,22.4c-4.2,4.1-8.9,6.8-14.3,8.2c0.2-0.2,0.4-0.4,0.6-0.6
	c0.5-0.4,0.9-0.9,1.3-1.4c-0.8,0.3-1.6,0.5-2.5,0.7c0.1-0.1,0.2-0.2,0.3-0.3c6.1-5.9,9.1-13.1,9.1-21.5c0-8.4-3-15.6-9.1-21.5
	c-6.1-5.9-13.4-8.9-22.1-8.9c-2.5,0-4.9,0.3-7.1,0.8c0.6-0.6,1.1-1.1,1.7-1.6c-0.8,0.1-1.6,0.3-2.4,0.5c1.7-1.6,3.5-3.1,5.6-4.3
	c4.7-2.8,10-4.3,15.9-4.3c9,0,16.7,3.1,23,9.3C401.1,55.1,404.3,62.6,404.3,71.3z"/>
<path class="st0" d="M459,39.6h22.1c5.8,0,10.7,1.1,14.7,3.3c5.4,3,8.1,7.6,8.1,13.9c0,6.3-2.7,11-8.1,13.9c-2.6,1.5-5.9,2.4-9.7,3
	l22.1,28.1c0.1,0.1,0.1,0.3,0.1,0.4c0,0.5-0.2,0.7-0.6,0.7c-0.3,0-0.5-0.1-0.6-0.3L484.6,74c-1.2,0.1-2.4,0.2-3.5,0.2h-21.5v28.1
	c0,0.5-0.2,0.7-0.6,0.7c-0.4,0-0.6-0.2-0.6-0.7V73.5c0-0.4,0.2-0.6,0.7-0.6h22.1c0.5,0,1.3-0.1,2.5-0.2l-25.2-32
	c-0.1-0.1-0.1-0.3-0.1-0.4C458.3,39.9,458.5,39.6,459,39.6z M460.3,40.9l24.9,31.7c4-0.5,7.3-1.5,9.9-3c5-2.7,7.4-7,7.4-12.8
	c0-5.8-2.4-10-7.3-12.8c-3.8-2.1-8.5-3.2-14.1-3.2H460.3z"/>
</svg>
