<?xml version="1.0" encoding="utf-8"?>
<!-- Generator: Adobe Illustrator 24.0.0, SVG Export Plug-In . SVG Version: 6.00 Build 0)  -->
<svg version="1.1" id="Capa_1" xmlns="http://www.w3.org/2000/svg" xmlns:xlink="http://www.w3.org/1999/xlink" x="0px" y="0px"
	 viewBox="0 0 475.3 68.2" style="enable-background:new 0 0 475.3 68.2;" xml:space="preserve">
<style type="text/css">
	.st0{fill:#0E2DA5;stroke:#0E2DA5;stroke-width:2;stroke-miterlimit:10;}
	.st1{fill:#0E2DA5;}
</style>
<path class="st0" d="M3.3,2.4h44.3c0.5,0,0.7,0.2,0.7,0.6c0,0.4-0.2,0.6-0.7,0.6H3.3C2.8,3.6,2.6,3.4,2.6,3C2.6,2.7,2.8,2.4,3.3,2.4
	z M3.3,33.4h39.8c0.5,0,0.7,0.2,0.7,0.7s-0.2,0.7-0.7,0.7H3.3c-0.5,0-0.7-0.2-0.7-0.7C2.6,33.6,2.8,33.4,3.3,33.4z M3.3,64.5h44.3
	c0.5,0,0.7,0.2,0.7,0.6s-0.2,0.6-0.7,0.6H3.3c-0.5,0-0.7-0.2-0.7-0.6C2.6,64.7,2.8,64.5,3.3,64.5z"/>
<path class="st0" d="M150.7,2.4c0.5,0,0.7,0.2,0.7,0.7V65c0,0.5-0.2,0.7-0.7,0.7c-0.3,0-0.5-0.1-0.6-0.3L107,5.2V65
	c0,0.5-0.2,0.7-0.6,0.7c-0.4,0-0.6-0.2-0.6-0.7V3.1c0-0.5,0.2-0.7,0.7-0.7c0.2,0,0.4,0.1,0.5,0.3l43.1,60.2V3.1
	C150,2.7,150.2,2.4,150.7,2.4z"/>
<path class="st0" d="M209.5,2.4h8.8c12.7,0,22.1,3,28.2,9c5.3,5.3,7.9,12.8,7.9,22.6s-2.6,17.3-7.9,22.6c-6.1,6-15.5,9-28.2,9h-8.8
	c-0.5,0-0.7-0.2-0.7-0.6s0.2-0.6,0.7-0.6h8.8c12.4,0,21.4-2.9,27.2-8.7c5-5,7.5-12.2,7.5-21.6s-2.5-16.6-7.5-21.6
	c-5.8-5.8-14.8-8.7-27.2-8.7h-8.8c-0.5,0-0.7-0.2-0.7-0.6C208.8,2.7,209,2.4,209.5,2.4z"/>
<path class="st0" d="M342.7,62.7c-2.5,0.6-5,0.9-7.8,0.9c-8.2,0-14.9-2.8-20.3-8.4s-8-12.5-8-20.7s2.7-15.1,8-20.7
	c0.1-0.1,0.2-0.2,0.4-0.4c0.5-0.6,1.1-1.1,1.6-1.6c-0.8,0.1-1.6,0.3-2.3,0.5l0,0c-0.5,0.5-1.1,1.1-1.6,1.7c-1.4,1.6-2.5,3.3-3.6,5.2
	c-2.5,4.6-3.8,9.7-3.8,15.2s1.2,10.6,3.8,15.2c2.5,4.6,6,8.3,10.5,11s9.6,4.1,15.2,4.1c2,0,4-0.2,5.9-0.5c0.8-0.1,1.6-0.3,2.4-0.5
	c0.2-0.2,0.4-0.4,0.6-0.5c0.4-0.4,0.9-0.9,1.2-1.3C344.3,62.3,343.6,62.5,342.7,62.7z"/>
<path class="st1" d="M344,63.5c-0.6,0.6-1.3,1.2-2,1.7c0.9-0.1,1.7-0.3,2.5-0.5c0.2-0.2,0.4-0.4,0.6-0.6c0.5-0.4,0.9-0.9,1.3-1.4
	C345.6,63.1,344.8,63.3,344,63.5z M314.3,11c-0.6,0.6-1.1,1.2-1.7,1.8c0.8-0.3,1.6-0.5,2.4-0.6c0.6-0.6,1.1-1.1,1.7-1.6
	C315.9,10.6,315.1,10.8,314.3,11L314.3,11z"/>
<path class="st1" d="M368.3,34.1c0,8.7-3.2,16.2-9.5,22.4c-4.2,4.1-8.9,6.8-14.3,8.2c0.2-0.2,0.4-0.4,0.6-0.6
	c0.5-0.4,0.9-0.9,1.3-1.4c-0.8,0.3-1.6,0.5-2.5,0.7c0.1-0.1,0.2-0.2,0.3-0.3c6.1-5.9,9.1-13.1,9.1-21.5s-3-15.6-9.1-21.5
	s-13.4-8.9-22.1-8.9c-2.5,0-4.9,0.3-7.1,0.8c0.6-0.6,1.1-1.1,1.7-1.6c-0.8,0.1-1.6,0.3-2.4,0.5c1.7-1.6,3.5-3.1,5.6-4.3
	c4.7-2.8,10-4.3,15.9-4.3c9,0,16.7,3.1,23,9.3C365.1,17.9,368.3,25.4,368.3,34.1z"/>
<path class="st0" d="M423,2.4h22.1c5.8,0,10.7,1.1,14.7,3.3c5.4,3,8.1,7.6,8.1,13.9s-2.7,11-8.1,13.9c-2.6,1.5-5.9,2.4-9.7,3
	l22.1,28.1c0.1,0.1,0.1,0.3,0.1,0.4c0,0.5-0.2,0.7-0.6,0.7c-0.3,0-0.5-0.1-0.6-0.3l-22.5-28.6c-1.2,0.1-2.4,0.2-3.5,0.2h-21.5v28.1
	c0,0.5-0.2,0.7-0.6,0.7s-0.6-0.2-0.6-0.7V36.3c0-0.4,0.2-0.6,0.7-0.6h22.1c0.5,0,1.3-0.1,2.5-0.2l-25.2-32c-0.1-0.1-0.1-0.3-0.1-0.4
	C422.3,2.7,422.5,2.4,423,2.4z M424.3,3.7l24.9,31.7c4-0.5,7.3-1.5,9.9-3c5-2.7,7.4-7,7.4-12.8s-2.4-10-7.3-12.8
	c-3.8-2.1-8.5-3.2-14.1-3.2L424.3,3.7L424.3,3.7z"/>
</svg>
