<?xml version="1.0" encoding="utf-8"?>
<!-- Generator: Adobe Illustrator 24.0.0, SVG Export Plug-In . SVG Version: 6.00 Build 0)  -->
<svg version="1.1" id="Capa_1" xmlns="http://www.w3.org/2000/svg" xmlns:xlink="http://www.w3.org/1999/xlink" x="0px" y="0px"
	 viewBox="0 0 90 90" style="enable-background:new 0 0 90 90;" xml:space="preserve">
<style type="text/css">
	.st0{fill:#0E2DA5;stroke:#0E2DA5;stroke-width:2;stroke-miterlimit:10;}
	.st1{fill:#0E2DA5;}
	.st2{fill:#FFFFFF;}
</style>
<path class="st2" d="M47.8,89.6c-1.9,0-3.7,0-5.6,0c-1.1-0.1-2.2-0.3-3.3-0.4c-8.2-1.2-15.6-4.3-22-9.6c-8.5-7-13.8-15.9-15.8-26.8
	c-0.3-1.6-0.5-3.3-0.7-5c0-1.9,0-3.7,0-5.6c0.3-1.9,0.5-3.9,0.9-5.8c3.7-19.1,20-34,39.3-35.7c9.5-0.9,18.6,0.8,26.7,5.9
	c16,9.8,23.4,24.3,22,43c-0.7,8.8-4.1,16.7-9.7,23.6c-7,8.5-16,13.8-26.8,15.8C51.2,89.2,49.5,89.3,47.8,89.6z M71.2,67.8
	c0-0.3,0-0.6,0-0.8c0-5.9,0-11.8,0-17.7c0-1.2-0.1-2.5-0.2-3.7c-0.8-6.4-4.6-10.4-10.7-11.1c-4.4-0.5-8.1,0.8-10.8,4.6
	c-0.1,0.2-0.2,0.3-0.5,0.6c0-1.6,0-3,0-4.5c-3.7,0-7.2,0-10.8,0c0,10.9,0,21.7,0,32.6c3.6,0,7.2,0,10.8,0c0-0.4,0-0.7,0-1.1
	c0-4.4,0-8.7,0-13.1c0-1.7,0-3.4,0.1-5.1c0.1-2,1.1-3.5,2.6-4.6c3.1-2.2,7.2-0.8,8.2,2.9c0.3,1.2,0.5,2.5,0.5,3.8
	c0,5.4,0,10.8,0,16.3c0,0.3,0,0.6,0,1C64,67.8,67.6,67.8,71.2,67.8z M21.3,35.1c0,11,0,21.8,0,32.6c3.6,0,7.2,0,10.8,0
	c0-0.4,0-0.7,0-1.1c0-9.7,0-19.5,0-29.2c0-0.5,0-1,0-1.5c0.1-0.7-0.2-0.8-0.8-0.8c-2.8,0-5.7,0-8.5,0C22.3,35.1,21.8,35.1,21.3,35.1
	z M26.4,19.4c-2,0.1-4,0.8-5.2,3.1c-1.5,2.9-0.2,6.4,2.8,7.7c3.4,1.4,7.4-0.1,8.5-3.3C33.8,23.1,31,19.4,26.4,19.4z"/>
</svg>
