<?xml version="1.0" encoding="utf-8"?>
<!-- Generator: Adobe Illustrator 24.0.0, SVG Export Plug-In . SVG Version: 6.00 Build 0)  -->
<svg version="1.1" id="Capa_1" xmlns="http://www.w3.org/2000/svg" xmlns:xlink="http://www.w3.org/1999/xlink" x="0px" y="0px"
	 viewBox="0 0 90 90" style="enable-background:new 0 0 90 90;" xml:space="preserve">
<style type="text/css">
	.st0{fill:#0E2DA5;stroke:#0E2DA5;stroke-width:2;stroke-miterlimit:10;}
	.st1{fill:#0E2DA5;}
	.st2{fill:#FFFFFF;}
</style>
<path class="st2" d="M0.2,43.2c0.2-1.6,0.4-3.2,0.7-4.8C3,26.8,9,17.4,18.6,10.5C27.4,4.1,37.2,1.4,47.9,2c21,1.2,38,16.7,41.5,36.5
	c3.4,19.3-6.7,38.7-24.3,47c-1.7,0.8-3.5,1.4-5.3,2.2c-0.2,0.1-0.4,0.1-0.6,0.2c-1.8,0.5-3.1-0.5-3.1-2.4c0-3.9,0-7.7,0-11.6
	c0-0.6,0-1.2-0.1-1.8c-0.3-2.4-1-4.7-2.8-6.4c2.2-0.5,4.3-0.8,6.4-1.4c8.1-2.2,12.9-7.9,13.6-16.3c0.2-2.3,0.2-4.7,0-7.1
	c-0.3-3.2-1.7-6-3.8-8.4c-0.3-0.4-0.5-0.7-0.3-1.2c1.1-3.5,0.8-7-0.5-10.5c-0.3-0.7-0.8-0.7-1.3-0.6c-1.7,0.4-3.4,0.6-5,1.3
	c-1.9,0.8-3.7,2-5.6,2.9c-0.4,0.2-0.9,0.3-1.4,0.2c-7-1.7-14-1.7-21,0c-0.4,0.1-1,0-1.4-0.2c-2.8-1.7-5.6-3.3-8.9-4
	c-2.6-0.5-2.9-0.4-3.5,2.2c-0.8,3-0.8,6,0.2,9c0.1,0.2,0,0.6-0.1,0.8c-3.8,4.3-4.7,9.4-4.1,15c0.4,3.5,1.2,6.8,3.2,9.8
	c2.6,4,6.5,6.2,10.9,7.4c2,0.5,4,0.8,6,1.3c-1.5,1.5-2.3,3.4-2.6,5.4c0,0.2-0.3,0.5-0.5,0.6c-4.8,1.9-9.5,1.2-12.6-3.8
	c-1.5-2.4-3.6-4.2-6.5-4.6c-0.5-0.1-1.1,0-1.6,0.1c-0.9,0.2-1,0.7-0.4,1.4c0.3,0.4,0.7,0.7,1.1,1c2.3,1.4,3.9,3.4,4.9,5.9
	c2.1,5.7,7.3,7.6,12.6,7.1c0.9-0.1,1.9-0.2,2.8-0.4c0,0.2,0.1,0.4,0.1,0.7c0,2.1,0.1,4.2,0.1,6.3c0,2.2-1.4,3.2-3.4,2.5
	C15.2,82.2,5.3,71.6,1.3,55.7c-0.5-2-0.6-4.1-0.9-6.1c0-0.3-0.1-0.6-0.1-0.8C0.2,46.9,0.2,45,0.2,43.2z"/>
</svg>
